<svg width="32" height="32" viewBox="0 0 32 32" fill="none" xmlns="http://www.w3.org/2000/svg">
  <defs>
    <linearGradient id="gradient" x1="0%" y1="0%" x2="100%" y2="100%">
      <stop offset="0%" style="stop-color:#3B82F6;stop-opacity:1" />
      <stop offset="50%" style="stop-color:#8B5CF6;stop-opacity:1" />
      <stop offset="100%" style="stop-color:#06B6D4;stop-opacity:1" />
    </linearGradient>
  </defs>
  
  <!-- Background circle -->
  <circle cx="16" cy="16" r="15" fill="url(#gradient)" stroke="#1F2937" stroke-width="2"/>
  
  <!-- Scale of Justice -->
  <g transform="translate(8, 6)">
    <!-- Scale base -->
    <rect x="6" y="20" width="4" height="2" fill="#1F2937" rx="1"/>
    
    <!-- Scale pole -->
    <rect x="7.5" y="8" width="1" height="12" fill="#1F2937"/>
    
    <!-- Scale crossbar -->
    <rect x="4" y="8" width="8" height="1" fill="#1F2937"/>
    
    <!-- Left scale -->
    <circle cx="5" cy="6" r="2" fill="#F59E0B" stroke="#1F2937" stroke-width="0.5"/>
    <line x1="5" y1="6" x2="5" y2="8" stroke="#1F2937" stroke-width="0.5"/>
    
    <!-- Right scale -->
    <circle cx="11" cy="6" r="2" fill="#F59E0B" stroke="#1F2937" stroke-width="0.5"/>
    <line x1="11" y1="6" x2="11" y2="8" stroke="#1F2937" stroke-width="0.5"/>
    
    <!-- AI Circuit pattern -->
    <g opacity="0.7">
      <rect x="2" y="2" width="1" height="1" fill="white" rx="0.2"/>
      <rect x="4" y="2" width="1" height="1" fill="white" rx="0.2"/>
      <rect x="6" y="2" width="1" height="1" fill="white" rx="0.2"/>
      <rect x="8" y="2" width="1" height="1" fill="white" rx="0.2"/>
      <rect x="10" y="2" width="1" height="1" fill="white" rx="0.2"/>
      <rect x="12" y="2" width="1" height="1" fill="white" rx="0.2"/>
      
      <!-- Connecting lines -->
      <line x1="2.5" y1="2.5" x2="4.5" y2="2.5" stroke="white" stroke-width="0.3"/>
      <line x1="4.5" y1="2.5" x2="6.5" y2="2.5" stroke="white" stroke-width="0.3"/>
      <line x1="6.5" y1="2.5" x2="8.5" y2="2.5" stroke="white" stroke-width="0.3"/>
      <line x1="8.5" y1="2.5" x2="10.5" y2="2.5" stroke="white" stroke-width="0.3"/>
      <line x1="10.5" y1="2.5" x2="12.5" y2="2.5" stroke="white" stroke-width="0.3"/>
    </g>
  </g>
</svg>

